# xmcd CD database file
#
# Track frame offsets:
#	150
#	37321
#	68311
#	116084
#	151381
#	165784
#	209879
#	236944
#	275571
#
# Disc length: 4393 seconds
#
# Revision: 0
# Processed by: cddbd v1.5.2PL0 Copyright (c) Steve Scherf et al.
# Submitted via: CDex 1.51
#
DISCID=81112709
DTITLE=bd jazz charles Mingus - pithecanthropus erectus 54-57
DYEAR=2000
DGENRE=Jazz
TTITLE0=where is this thing called love
TTITLE1=jump monk
TTITLE2=pythecanthropus erectus
TTITLE3=a foggy day
TTITLE4=profile of jackie
TTITLE5=passions of a woman loved
TTITLE6=tonight at noon
TTITLE7=reincarnation of a lovebird
TTITLE8=haitian fight song
EXTD=YEAR: 2000
EXTT0=
EXTT1=
EXTT2=
EXTT3=
EXTT4=
EXTT5=
EXTT6=
EXTT7=
EXTT8=
PLAYORDER=
